<svg xmlns="http://www.w3.org/2000/svg" height="1024" preserveAspectRatio="none" style="display: block;" version="1.1" viewBox="0 0 2048 2048" width="1024">
<path d="M 0 0 L 2048 0 L 2048 2048 L 0 2048 L 0 0 z" fill="rgb(255,255,255)" transform="translate(0,0)"></path>
<path d="M 1362.92 736.432 C 1456.51 730.57 1555.3 757.28 1636.99 801.672 C 1988.18 992.5 1988.72 1476.3 1654.06 1687.26 C 1615.93 1711.64 1574.69 1730.78 1531.46 1744.15 C 1397.69 1784.32 1261.64 1777.12 1137.67 1710.53 C 1154.18 1696.88 1167.49 1682.34 1181.86 1666.59 C 1234.43 1609.03 1273.24 1542.19 1297.81 1468.28 C 1302.62 1453.8 1306.23 1435.95 1311.93 1422.37 C 1349.34 1402.1 1387.15 1379.29 1424.32 1358.31 C 1452.83 1342.22 1481.31 1326.55 1509.46 1309.83 C 1541.19 1291.32 1576.57 1271.99 1606.71 1251.51 C 1587.85 1241.85 1565.13 1227.9 1546.06 1217.34 L 1401.75 1136.48 C 1364.97 1115.68 1329.24 1095.04 1291.67 1075.57 C 1290.67 1093.85 1291.19 1118.35 1291.1 1137.2 L 1291.04 1262.77 C 1291.12 1303.65 1292.57 1329.42 1286.22 1370.14 C 1269.16 1479.7 1217.68 1583.99 1138.33 1661.77 C 1127.77 1672.11 1115.11 1684.3 1103.29 1692.94 C 1006.66 1637.93 929.925 1553.75 884.072 1452.45 C 874.144 1430.39 866.922 1407.49 859.081 1384.65 C 976.718 1355.98 1095.81 1273.9 1169.78 1178.49 C 1271.71 1047.01 1302.11 909.513 1280.42 746.312 C 1313.38 740.293 1329.44 738.324 1362.92 736.432 z" fill="rgb(195,54,65)" transform="translate(0,0)"></path>
<path d="M 665.631 277.418 C 672.528 276.456 689.381 276.743 696.859 276.743 C 750.571 276.746 795.867 284.916 847.31 298.631 C 778.247 356.142 716.914 449.755 685.686 533.151 C 678.223 553.082 668.553 578.4 665.928 599.32 C 661.132 597.166 656.97 594.736 652.389 592.231 C 620.317 574.689 588.643 555.856 556.086 539.26 C 556.26 588.287 557.101 638.994 556.653 687.784 C 545.428 690.041 518.157 700.639 507.082 704.963 C 412.014 742.026 327.333 801.555 260.274 878.461 C 226.249 920.048 195.681 955.572 171.001 1005.01 C 166.308 986.317 160.621 967.788 156.283 949.023 C 143.8 895.029 141.564 845.218 144.527 790.319 C 157.466 550.545 335.114 344.796 567.945 290.686 C 600.183 283.194 632.705 279.773 665.631 277.418 z" fill="rgb(47,54,66)" transform="translate(0,0)"></path>
<path d="M 885.869 310.722 C 911.456 319.392 939.944 332.466 963.495 345.551 C 1087.11 414.236 1176.61 524.892 1224.75 657.359 C 1232.24 677.963 1236.71 696.02 1242.71 716.918 C 1225.67 724.004 1204.02 729.378 1185.04 737.168 C 1111.61 767.324 1044.52 811.063 987.297 866.089 C 882.592 967.757 811.619 1119.74 809.558 1266.53 C 796.447 1248 783.871 1233.48 771.628 1213.9 C 732.48 1153.99 701.18 1075.83 692.532 1004.53 C 711.863 995.291 734.65 981.187 753.444 970.176 L 834.875 923.356 C 881.551 897.081 927.846 870.134 973.745 842.524 C 986.674 834.826 1018.72 817.359 1028.93 809.274 C 1011.16 799.675 993.267 788.81 975.557 778.889 C 910.341 742.825 845.675 705.773 781.584 667.746 C 769.14 660.439 695.808 621.864 697.296 614.977 C 719.812 510.813 779.627 409.43 857.648 336.645 C 869.529 325.562 876.901 319.998 885.869 310.722 z" fill="rgb(47,54,66)" transform="translate(0,0)"></path>
<path d="M 555.89 813.077 C 558.048 823.637 555.929 869.364 555.957 882.684 C 555.889 949.137 556.351 1015.59 557.343 1082.03 C 588.543 1062.77 628.431 1042.23 661.141 1023.44 C 679.918 1134.37 732.029 1236.96 810.541 1317.55 C 813.476 1333.06 814.44 1349.5 817.642 1366.41 C 802.914 1370.21 784.724 1372.93 769.647 1375.06 C 702.014 1385.33 633.038 1382.5 566.477 1366.7 L 564.982 1366.39 C 543.643 1361.81 518.707 1352.95 498.497 1345.07 C 388.124 1301.76 294.344 1224.53 230.659 1124.52 C 241.027 1099.56 251.531 1080.54 265.249 1057.38 C 331.18 944.973 433.816 858.699 555.89 813.077 z" fill="rgb(47,54,66)" transform="translate(0,0)"></path>
<path d="M 1245.15 756.234 L 1246.51 757.891 C 1264.61 878.293 1243.58 995.026 1181.19 1099.74 C 1110.32 1218.69 988.038 1314.5 853.356 1348.72 C 850.565 1344.56 847.22 1310.98 846.494 1304 C 843.24 1272.74 845.823 1240.98 849.627 1209.89 C 859.433 1129.76 887.506 1060.33 930.008 992.109 C 972.14 925.653 1027.91 868.911 1093.63 825.642 C 1135.57 798.14 1196.62 767.562 1245.15 756.234 z" fill="rgb(195,54,65)" transform="translate(0,0)"></path>
<path d="M 169.887 1088.59 C 173.119 1092.52 190.351 1129.89 193.726 1136.91 C 179.884 1179.5 170.991 1223.53 167.224 1268.15 C 155.593 1410.64 206.683 1561.7 299.169 1670.29 C 395.488 1783.41 532.704 1853.77 680.781 1865.96 C 832.68 1878.05 983.099 1828.84 1098.48 1729.31 L 1130.43 1745.93 C 1125.58 1751.14 1119.34 1756.53 1113.99 1761.39 C 1088.33 1782.53 1054.55 1806.43 1025.69 1822.99 C 887.366 1901.34 723.885 1922.47 570.188 1881.87 C 417.882 1840.52 288.279 1740.29 209.961 1603.27 C 126.681 1457.54 106.618 1283.21 159.157 1122.86 C 162.895 1111.45 166.738 1100.19 169.887 1088.59 z" fill="rgb(47,54,66)" transform="translate(0,0)"></path>
<path d="M 1314.72 146.457 C 1390.72 143.401 1478.79 159.121 1548.87 188.372 C 1670.84 238.441 1772.64 327.75 1838.15 442.169 C 1850.34 463.3 1862.01 484.799 1871.22 507.015 C 1926.31 639.902 1933.72 793.674 1882.98 929.063 C 1877.93 942.552 1872.18 955.59 1866.59 968.974 C 1860.95 960.326 1851 944.899 1844.22 937.597 C 1849.87 916.648 1859.45 895.89 1865.38 872.385 C 1891.04 771.686 1887.93 665.806 1856.39 566.788 C 1839.75 515.203 1804.85 444.916 1771.72 401.661 C 1692.04 296.439 1578.05 222.431 1449.51 192.48 C 1434.65 189.175 1416.56 186.815 1401.32 184.8 C 1277.96 169.246 1152.93 195.204 1045.96 258.579 C 1016.33 276.366 1001.06 289.604 974.085 310.288 C 965.655 307.535 949.151 300.09 940.113 296.441 C 959.002 276.98 986.909 256.364 1009.75 241.46 C 1105.7 178.864 1201.13 150.393 1314.72 146.457 z" fill="rgb(195,54,65)" transform="translate(0,0)"></path>
<path d="M 642.906 695.451 C 655.024 702.474 668.435 708.931 680.909 715.667 C 702.735 727.464 724.4 739.558 745.898 751.943 C 764.903 762.833 783.971 773.615 803.099 784.287 C 820.108 793.954 836.946 804.407 855.158 811.456 C 830.075 826.186 803.973 839.688 778.237 854.925 C 733.594 879.373 687.876 907.517 642.865 932.623 C 643.745 853.568 643.758 774.506 642.906 695.451 z" fill="rgb(195,54,65)" transform="translate(0,0)"></path>
<path d="M 555.094 723.255 C 557.195 725.995 556.107 771.296 556.067 778.244 C 552.728 779.183 549.424 780.24 546.16 781.412 C 397.727 835.566 277.055 946.735 210.935 1090.24 L 203.922 1075.92 C 198.739 1066.74 193.42 1056.17 188.446 1046.77 C 192.207 1038.76 196.068 1030.8 200.029 1022.89 C 271.934 880.276 404.38 773.003 555.094 723.255 z" fill="rgb(47,54,66)" transform="translate(0,0)"></path>
<metadata><recraft-signature>{"signed_by": "recraft", "signature_b64": "zUN8PdaVTdHaf3wLGZttFWMKLoXXxafeAMcaMheLYd8FG9s1KX2ZUFJQ9vQgz2uk8jFwJudR/jEnJYh1XdhcBw==", "signing_algo": "Ed25519", "generation_timestamp": 1773930408, "identifier": "cfb1cb87-eb22-427f-8b8c-cba6bb2d8fc5"}</recraft-signature></metadata></svg>